<svg xmlns="http://www.w3.org/2000/svg" width="78" height="48" aria-hidden="true" class="icon credit-card js-credit-card" data-focussed="none" focusable="false" viewBox="0 0 78 48"><g class="credit-cards"><path d="M78 42c0 3.3-2.7 6-6 6H6c-3.3 0-6-2.7-6-6V6c0-3.3 2.7-6 6-6h66c3.3 0 6 2.7 6 6v36z" class="credit-card__outer"/><path d="M74 40c0 2.2-1.8 4-4 4H8c-2.2 0-4-1.8-4-4V8c0-2.2 1.8-4 4-4h62c2.2 0 4 1.8 4 4v32z" class="credit-card__inner"/><path d="M4 10h70v10H4z" class="credit-card__magnetic-strip"/><path d="M10 26h36v4H10z" class="credit-card__number"/><path d="M10 34h24v4H10z" class="credit-card__name"/><path d="M58 26h12v4H58z" class="credit-card__cvc"/><path d="M46 34h12v4H46z" class="credit-card__date"/></g></svg>