<svg xmlns="http://www.w3.org/2000/svg" fill="none" viewBox="0 0 32 32" width="32" height="32"><path fill="#605111" fill-rule="evenodd" d="M16 12a1 1 0 0 1 1 1v5a1 1 0 1 1-2 0v-5a1 1 0 0 1 1-1Z" clip-rule="evenodd"/><path fill="#605111" fill-rule="evenodd" d="M14.501 3.403a2.987 2.987 0 0 1 4.09 1.098l.002.002L29.59 23.5a3 3 0 0 1-2.588 4.5H4.996a3 3 0 0 1-2.587-4.5L13.407 4.503l.001-.002a2.987 2.987 0 0 1 1.093-1.098ZM14.275 5l.865.501L4.141 24.5a1.001 1.001 0 0 0 .861 1.5h21.996a1 1 0 0 0 .861-1.5L16.857 5.497a.987.987 0 0 0-1.714 0L14.275 5Z" clip-rule="evenodd"/><path fill="#605111" d="M16 24a1.5 1.5 0 1 0 0-3 1.5 1.5 0 0 0 0 3Z"/></svg>
