<svg class="icon icon--32" xmlns="http://www.w3.org/2000/svg" fill="none" viewBox="0 0 32 32" width="32" height="32" focusable="false" aria-hidden="true"><path fill="#063a69" fill-rule="evenodd" d="M16 5C9.925 5 5 9.925 5 16s4.925 11 11 11 11-4.925 11-11S22.075 5 16 5ZM3 16C3 8.82 8.82 3 16 3s13 5.82 13 13-5.82 13-13 13S3 23.18 3 16Z" clip-rule="evenodd"/><path fill="#063a69" fill-rule="evenodd" d="M14 15a1 1 0 0 1 1-1h1a1 1 0 0 1 1 1v6a1 1 0 1 1 0 2h-1a1 1 0 0 1-1-1v-6a1 1 0 0 1-1-1Z" clip-rule="evenodd"/><path fill="#063a69" d="M15.75 12a1.5 1.5 0 1 0 0-3 1.5 1.5 0 0 0 0 3Z"/></svg>
